<?xml version="1.0" standalone="no"?>
<!DOCTYPE svg PUBLIC "-//W3C//DTD SVG 20010904//EN"
 "http://www.w3.org/TR/2001/REC-SVG-20010904/DTD/svg10.dtd">
<svg version="1.0" xmlns="http://www.w3.org/2000/svg"
 width="200.000000pt" height="200.000000pt" viewBox="0 0 200.000000 200.000000"
 preserveAspectRatio="xMidYMid meet">
<metadata>
Created by potrace 1.11, written by Peter Selinger 2001-2013
</metadata>
<g transform="translate(0.000000,200.000000) scale(0.100000,-0.100000)"
fill="#000000" stroke="none">
<path d="M763 1980 c-12 -5 -31 -22 -43 -38 -13 -18 -38 -34 -63 -42 -23 -6
-79 -31 -124 -55 -593 -313 -702 -1101 -216 -1556 123 -115 263 -191 433 -237
83 -22 115 -25 250 -25 135 0 167 3 250 25 501 135 811 606 725 1101 -81 466
-492 806 -974 807 -58 0 -112 6 -136 15 -46 16 -71 17 -102 5z m456 -130 c169
-41 322 -131 448 -263 172 -181 261 -443 233 -684 -5 -49 -15 -107 -22 -129
l-13 -41 -244 128 c-185 96 -260 130 -308 139 l-63 12 0 119 0 119 31 -7 c35
-7 49 6 49 48 0 56 -77 71 -117 24 -22 -25 -23 -33 -23 -241 l0 -214 -40 0
-40 0 0 385 c0 212 2 385 3 385 2 0 18 -7 35 -16 40 -19 68 -11 87 26 38 74
-4 160 -79 160 -71 0 -126 -36 -156 -103 l-18 -39 -4 94 c-3 51 -9 102 -13
112 -8 18 -4 19 81 12 49 -3 127 -15 173 -26z m-491 -40 c15 -24 58 -26 90 -4
l22 15 0 -108 0 -108 -19 31 c-12 20 -34 37 -56 44 -33 11 -40 10 -64 -7 -29
-22 -38 -61 -21 -93 11 -21 54 -28 66 -9 17 28 21 -24 16 -238 -4 -222 -5
-233 -24 -233 -11 0 -26 7 -34 15 -9 8 -30 15 -47 15 -26 -1 -75 -36 -277
-201 l-245 -200 -13 43 c-58 199 -20 468 95 663 52 89 162 209 249 271 57 41
216 123 239 124 6 0 16 -9 23 -20z">
</g>
</svg>
